<?xml version="1.0" encoding="UTF-8" standalone="no"?>
<svg width="60px" height="35px" viewBox="0 0 60 35" version="1.1" xmlns="http://www.w3.org/2000/svg" xmlns:xlink="http://www.w3.org/1999/xlink">
    <!-- Generator: Sketch 44.1 (41455) - http://www.bohemiancoding.com/sketch -->
    <title>bioliving-logo</title>
    <desc>Created with Sketch.</desc>
    <defs></defs>
    <g id="Evento" stroke="none" stroke-width="1" fill="none" fill-rule="evenodd">
        <g id="Eventos-Pagina" transform="translate(-24.000000, -24.000000)">
            <g id="top-nav" transform="translate(0.000000, -1.000000)">
                <g id="bioliving-logo" transform="translate(24.000000, 25.000000)">
                    <g id="logo">
                        <path d="M14.6382979,11.3191489 C16.5106383,11.3191489 18.2978723,11.2340426 20,11.0638298 C22.5531915,10.8085106 27.9148936,10.0425532 29.2765957,10.212766 C30.6382979,10.3829787 32,11.0638298 33.9574468,11.2340426 C35.9148936,11.4042553 36.3404255,11.4042553 39.3191489,11.3191489 C42.2978723,11.2340426 43.2340426,11.3191489 43.4042553,11.8297872 C43.5136989,12.1581181 43.4343009,12.5589319 41.787234,13.1914894 C40.8726918,13.5427201 38.891905,13.8052825 37.787234,14.4680851 C36.0851064,15.4893617 35.3475177,16.5390071 35.5744681,17.6170213 C34.1560284,17.7304965 33.0496454,17.929078 32.2553191,18.212766 C31.4609929,18.4964539 30.751773,19.0070922 30.1276596,19.7446809 C29.2765957,19.177305 28.5106383,18.8085106 27.8297872,18.6382979 C27.1489362,18.4680851 26.6382979,18.3262411 26.2978723,18.212766 C26.6382979,17.4751773 26.751773,17.0496454 26.6382979,16.9361702 C26.4680851,16.7659574 26.4680851,16.6808511 26.0425532,16.5957447 C25.6170213,16.5106383 25.466266,16.8074121 25.1914894,16.9361702 C24.9167127,17.0649283 24.2847477,17.4468085 23.9148936,17.4468085 C23.0638298,17.4468085 21.1914894,16.2553191 20,16.3404255 C19.2056738,16.3971631 18.4397163,16.5390071 17.7021277,16.7659574 C17.3617021,16.2553191 16.9929078,16.0851064 16.5957447,16.2553191 C16.1985816,16.4255319 16,16.7943262 16,17.3617021 C14.9787234,17.8156028 14.5248227,18.2695035 14.6382979,18.7234043 C14.8085106,19.4042553 15.0638298,20 16.0851064,20.3404255 C17.106383,20.6808511 17.8723404,21.0212766 19.0638298,20.9361702 C20.2553191,20.8510638 21.106383,20.7659574 21.787234,21.106383 C22.4680851,21.4468085 22.9787234,21.7021277 23.2340426,21.787234 C23.4893617,21.8723404 23.7446809,22.212766 24.1702128,22.7234043 C24.4539007,23.0638298 24.6524823,23.2624113 24.7659574,23.3191489 C24.5390071,23.4326241 24.3404255,23.6595745 24.1702128,24 C24,24.3404255 23.8865248,24.5673759 23.8297872,24.6808511 C23.4893617,24.6808511 23.2340426,24.6524823 23.0638298,24.5957447 C22.8085106,24.5106383 22.7234043,24.5106383 22.7234043,24.5957447 C22.7234043,24.6524823 22.7801418,24.7092199 22.893617,24.7659574 C22.9503546,24.7659574 22.9503546,24.7943262 22.893617,24.8510638 C22.8085106,24.9361702 22.1276596,25.106383 22.1276596,25.1914894 C22.1276596,25.2765957 22.212766,25.2765957 22.2978723,25.2765957 C22.3546099,25.2765957 22.4964539,25.2765957 22.7234043,25.2765957 C22.3262411,25.5602837 22.1276596,25.7304965 22.1276596,25.787234 C22.1276596,25.8723404 22.5531915,25.7021277 22.7234043,25.5319149 C22.8368794,25.4184397 22.9787234,25.3900709 23.1489362,25.4468085 C22.9219858,25.787234 22.8368794,25.9574468 22.893617,25.9574468 C22.9787234,25.9574468 23.5744681,25.5319149 23.7446809,25.4468085 C23.9148936,25.3617021 24.4255319,25.4468085 24.8510638,25.0212766 C25.2765957,24.5957447 26.5531915,23.3191489 26.2978723,23.1489362 C26.1276596,23.035461 25.9574468,22.8368794 25.787234,22.5531915 C28.964539,23.5744681 31.3758865,24.0851064 33.0212766,24.0851064 C35.4893617,24.0851064 38.0425532,22.8085106 38.4680851,21.6170213 C38.893617,20.4255319 39.0638298,20.3404255 39.3191489,20.5957447 C39.5744681,20.8510638 40.3404255,21.9574468 40.3404255,22.5531915 C40.3404255,23.1489362 40.4255319,23.1489362 40.3404255,23.3191489 C40.2553191,23.4893617 39.9148936,23.6595745 39.9148936,23.8297872 C39.9148936,24 40,23.9148936 40.1702128,23.8297872 C40.2836879,23.7730496 40.3404255,23.7446809 40.3404255,23.7446809 C40.3404255,24.0851064 40.2836879,24.3120567 40.1702128,24.4255319 C40,24.5957447 39.7446809,24.9361702 39.8297872,25.0212766 C39.9148936,25.106383 40.3404255,24.7659574 40.4255319,24.5957447 C40.5106383,24.4255319 40.7659574,24.1702128 40.7659574,24.1702128 C40.7659574,24.1702128 40.4255319,25.6170213 40.4255319,25.787234 C40.4255319,25.9007092 40.4822695,25.9574468 40.5957447,25.9574468 C40.8794326,25.106383 41.0496454,24.6241135 41.106383,24.5106383 C41.1914894,24.3404255 41.2765957,24.3404255 41.3617021,24.3404255 C41.4468085,24.3404255 41.787234,25.7021277 41.8723404,25.787234 C41.9574468,25.8723404 42.0425532,25.8723404 41.9574468,25.3617021 C41.8723404,24.8510638 41.8723404,23.8297872 42.0425532,23.7446809 C42.212766,23.6595745 42.3829787,24.0851064 42.6382979,24.0851064 C42.893617,24.0851064 42.9787234,24.0851064 42.8085106,23.9148936 C42.6382979,23.7446809 42.0425532,23.3191489 41.9574468,22.9787234 C41.8723404,22.6382979 41.3617021,20.2553191 40.5957447,19.6595745 C40.0851064,19.2624113 39.5460993,18.7234043 38.9787234,18.0425532 C38.8652482,17.5319149 39.0070922,17.106383 39.4042553,16.7659574 C40,16.2553191 42.5531915,16.0851064 43.4042553,15.4042553 C44.2553191,14.7234043 46.2978723,14.212766 45.787234,11.7446809 C45.2765957,9.27659574 42.212766,8.85106383 39.9148936,8.93617021 C37.6170213,9.0212766 34.893617,9.10638298 32.4255319,8.85106383 C29.9574468,8.59574468 27.1489362,8.17021277 22.5531915,9.27659574 C19.4893617,10.0141844 16.8510638,10.6950355 14.6382979,11.3191489 Z" id="lagarto" fill="#B3C14E"></path>
                        <g id="folhas-esq">
                            <path d="M23.2340426,34.9787234 C20.964539,32.1985816 19.0070922,30.4397163 17.3617021,29.7021277 C14.893617,28.5957447 9.95744681,25.5319149 9.10638298,23.5744681 C8.25531915,21.6170213 7.40425532,18.4680851 6.63829787,16.5106383 C5.87234043,14.5531915 3.23404255,11.4893617 3.14893617,8.59574468 C3.09219858,6.66666667 3.4893617,4.65248227 4.34042553,2.55319149" id="Path-2" stroke="#B3C14E" stroke-width="0.3"></path>
                            <g id="folha" transform="translate(13.787234, 22.978723)">
                                <path d="M0.595744681,0 C0.765957447,0.397163121 0.992907801,0.822695035 1.27659574,1.27659574 C1.70212766,1.95744681 2.63829787,3.14893617 2.72340426,4.08510638 C2.78014184,4.70921986 2.60992908,5.33333333 2.21276596,5.95744681 C1.41843972,5.61702128 0.879432624,5.21985816 0.595744681,4.76595745 C0.170212766,4.08510638 -0.085106383,2.72340426 0.085106383,1.78723404 C0.19858156,1.16312057 0.368794326,0.567375887 0.595744681,0 Z" id="Path" fill="#B3C14E"></path>
                                <path d="M0.936170213,2.46808511 C0.992907801,3.14893617 1.10638298,3.71631206 1.27659574,4.17021277 C1.44680851,4.62411348 1.58865248,4.90780142 1.70212766,5.0212766 C1.41843972,4.28368794 1.24822695,3.77304965 1.19148936,3.4893617 C1.13475177,3.20567376 1.04964539,2.86524823 0.936170213,2.46808511 Z" id="Path" fill="#FFFFFF"></path>
                            </g>
                            <g id="folha" transform="translate(5.191489, 21.872340)">
                                <path d="M5.61702128,3.57446809 C5.39007092,2.21276596 5.04964539,1.39007092 4.59574468,1.10638298 C3.91489362,0.680851064 2.80851064,0.170212766 1.70212766,0.085106383 C0.964539007,0.0283687943 0.397163121,0.0283687943 0,0.085106383 C0.624113475,0.539007092 1.16312057,0.936170213 1.61702128,1.27659574 C2.29787234,1.78723404 2.72340426,3.14893617 3.82978723,3.4893617 C4.56737589,3.71631206 5.16312057,3.74468085 5.61702128,3.57446809 Z" id="Path-3" fill="#B3C14E"></path>
                                <path d="M2.46808511,1.10638298 C3.20567376,1.5035461 3.68794326,1.81560284 3.91489362,2.04255319 C4.14184397,2.26950355 4.42553191,2.4964539 4.76595745,2.72340426 C4.14184397,1.9858156 3.68794326,1.56028369 3.40425532,1.44680851 C3.12056738,1.33333333 2.80851064,1.21985816 2.46808511,1.10638298 Z" id="Path-4" fill="#FFFFFF"></path>
                            </g>
                            <g id="folha" transform="translate(6.978723, 15.234043)">
                                <path d="M1.10638298,5.44680851 C0.368794326,4.9929078 2.10766636e-17,4.56737589 0,4.17021277 C0,3.57446809 0.255319149,2.29787234 1.78723404,1.19148936 C2.80851064,0.453900709 3.43262411,0.0567375887 3.65957447,0 C3.26241135,0.510638298 3.06382979,0.936170213 3.06382979,1.27659574 C3.06382979,1.78723404 3.23404255,3.40425532 2.80851064,4.25531915 C2.38297872,5.10638298 2.12765957,5.36170213 1.78723404,5.44680851 C1.56028369,5.5035461 1.33333333,5.5035461 1.10638298,5.44680851 Z" id="Path-5" fill="#B3C14E"></path>
                                <path d="M1.36170213,4.76595745 C1.36170213,3.91489362 1.41843972,3.31914894 1.53191489,2.9787234 C1.64539007,2.63829787 1.84397163,2.21276596 2.12765957,1.70212766 C1.90070922,2.38297872 1.75886525,2.83687943 1.70212766,3.06382979 C1.61702128,3.40425532 1.63980659,3.31311405 1.61702128,3.40425532 C1.56028369,3.63120567 1.4751773,4.08510638 1.36170213,4.76595745 Z" id="Path-6" fill="#FFFFFF"></path>
                            </g>
                            <g id="folha" transform="translate(0.510638, 13.106383)">
                                <path d="M5.61702128,2.29787234 C5.27659574,1.5035461 4.59574468,0.879432624 3.57446809,0.425531915 C2.55319149,-0.0283687943 1.36170213,-0.0567375887 0,0.340425532 C0.964539007,1.30496454 1.73049645,1.95744681 2.29787234,2.29787234 C3.14893617,2.80851064 4.08510638,3.31914894 4.76595745,2.9787234 C5.21985816,2.75177305 5.5035461,2.5248227 5.61702128,2.29787234 Z" id="Path-7" fill="#B3C14E"></path>
                                <path d="M4.34042553,1.87234043 C3.94326241,1.58865248 3.63120567,1.39007092 3.40425532,1.27659574 C3.17730496,1.16312057 2.89361702,1.07801418 2.55319149,1.0212766 C2.89361702,1.19148936 3.20567376,1.36170213 3.4893617,1.53191489 C3.77304965,1.70212766 4.05673759,1.81560284 4.34042553,1.87234043 Z" id="Path-8" fill="#FFFFFF"></path>
                            </g>
                            <g id="folha" transform="translate(3.744681, 6.808511)" fill-opacity="0.9">
                                <path d="M0.085106383,4.5106383 C-0.085106383,3.20567376 0.226950355,2.24113475 1.0212766,1.61702128 C1.81560284,0.992907801 3.06382979,0.453900709 4.76595745,0 C3.80141844,1.19148936 3.17730496,2.07092199 2.89361702,2.63829787 C2.46808511,3.4893617 2.12765957,4.5106383 1.36170213,4.68085106 C0.85106383,4.79432624 0.453900709,4.82269504 0.170212766,4.76595745 L0.085106383,4.5106383 Z" id="Path-9" fill="#B3C14E"></path>
                                <path d="M0.765957447,3.82978723 C1.04964539,3.09219858 1.33333333,2.60992908 1.61702128,2.38297872 C1.90070922,2.15602837 2.24113475,1.90070922 2.63829787,1.61702128 C2.07092199,2.18439716 1.70212766,2.58156028 1.53191489,2.80851064 C1.36170213,3.03546099 1.10638298,3.37588652 0.765957447,3.82978723 Z" id="Path" fill="#FFFFFF"></path>
                            </g>
                            <g id="folha" transform="translate(0.000000, 2.468085)">
                                <path d="M0,0 C1.4751773,0.510638298 2.4964539,1.10638298 3.06382979,1.78723404 C3.91489362,2.80851064 4.85106383,4.08510638 3.40425532,4.85106383 C2.43971631,5.36170213 1.67375887,4.9929078 1.10638298,3.74468085 C0.936170213,2.78014184 0.822695035,2.07092199 0.765957447,1.61702128 C0.709219858,1.16312057 0.453900709,0.624113475 0,0 Z" id="Path-10" fill="#B3C14E"></path>
                                <path d="M1.70212766,1.44680851 C2.09929078,2.29787234 2.35460993,2.89361702 2.46808511,3.23404255 C2.58156028,3.57446809 2.72340426,3.94326241 2.89361702,4.34042553 C2.78014184,3.54609929 2.63829787,2.9787234 2.46808511,2.63829787 C2.29787234,2.29787234 2.04255319,1.90070922 1.70212766,1.44680851 Z" id="Path-11" fill="#FFFFFF"></path>
                            </g>
                            <g id="folha" transform="translate(3.659574, 0.000000)">
                                <path d="M5.78723404,0 C4.76595745,0.510638298 4.02836879,0.879432624 3.57446809,1.10638298 C2.89361702,1.44680851 1.53191489,3.31914894 0.680851064,3.06382979 C0.113475177,2.89361702 -0.0567375887,2.4964539 0.170212766,1.87234043 C0.964539007,0.794326241 1.92907801,0.226950355 3.06382979,0.170212766 C4.19858156,0.113475177 5.10638298,0.0567375887 5.78723404,0 Z" id="Path-12" fill="#AEBC4B"></path>
                                <path d="M2.63829787,1.10638298 C1.95744681,1.39007092 1.53191489,1.64539007 1.36170213,1.87234043 C1.19148936,2.09929078 1.07801418,2.26950355 1.0212766,2.38297872 C1.41843972,2.04255319 1.73049645,1.78723404 1.95744681,1.61702128 C2.18439716,1.44680851 2.41134752,1.27659574 2.63829787,1.10638298 Z" id="Path-13" fill="#FFFFFF"></path>
                            </g>
                        </g>
                        <g id="folhas-dir" transform="translate(48.000000, 18.000000) scale(-1, 1) translate(-48.000000, -18.000000) translate(36.000000, 0.000000)">
                            <path d="M23.2340426,34.9787234 C20.964539,32.1985816 19.0070922,30.4397163 17.3617021,29.7021277 C14.893617,28.5957447 9.95744681,25.5319149 9.10638298,23.5744681 C8.25531915,21.6170213 7.40425532,18.4680851 6.63829787,16.5106383 C5.87234043,14.5531915 3.23404255,11.4893617 3.14893617,8.59574468 C3.09219858,6.66666667 3.4893617,4.65248227 4.34042553,2.55319149" id="Path-2" stroke="#B3C14E" stroke-width="0.3"></path>
                            <g id="folha" transform="translate(13.787234, 22.978723)">
                                <path d="M0.595744681,0 C0.765957447,0.397163121 0.992907801,0.822695035 1.27659574,1.27659574 C1.70212766,1.95744681 2.63829787,3.14893617 2.72340426,4.08510638 C2.78014184,4.70921986 2.60992908,5.33333333 2.21276596,5.95744681 C1.41843972,5.61702128 0.879432624,5.21985816 0.595744681,4.76595745 C0.170212766,4.08510638 -0.085106383,2.72340426 0.085106383,1.78723404 C0.19858156,1.16312057 0.368794326,0.567375887 0.595744681,0 Z" id="Path" fill="#B3C14E"></path>
                                <path d="M0.936170213,2.46808511 C0.992907801,3.14893617 1.10638298,3.71631206 1.27659574,4.17021277 C1.44680851,4.62411348 1.58865248,4.90780142 1.70212766,5.0212766 C1.41843972,4.28368794 1.24822695,3.77304965 1.19148936,3.4893617 C1.13475177,3.20567376 1.04964539,2.86524823 0.936170213,2.46808511 Z" id="Path" fill="#FFFFFF"></path>
                            </g>
                            <g id="folha" transform="translate(5.191489, 21.872340)">
                                <path d="M5.61702128,3.57446809 C5.39007092,2.21276596 5.04964539,1.39007092 4.59574468,1.10638298 C3.91489362,0.680851064 2.80851064,0.170212766 1.70212766,0.085106383 C0.964539007,0.0283687943 0.397163121,0.0283687943 0,0.085106383 C0.624113475,0.539007092 1.16312057,0.936170213 1.61702128,1.27659574 C2.29787234,1.78723404 2.72340426,3.14893617 3.82978723,3.4893617 C4.56737589,3.71631206 5.16312057,3.74468085 5.61702128,3.57446809 Z" id="Path-3" fill="#B3C14E"></path>
                                <path d="M2.46808511,1.10638298 C3.20567376,1.5035461 3.68794326,1.81560284 3.91489362,2.04255319 C4.14184397,2.26950355 4.42553191,2.4964539 4.76595745,2.72340426 C4.14184397,1.9858156 3.68794326,1.56028369 3.40425532,1.44680851 C3.12056738,1.33333333 2.80851064,1.21985816 2.46808511,1.10638298 Z" id="Path-4" fill="#FFFFFF"></path>
                            </g>
                            <g id="folha" transform="translate(6.978723, 15.234043)">
                                <path d="M1.10638298,5.44680851 C0.368794326,4.9929078 2.10766636e-17,4.56737589 0,4.17021277 C0,3.57446809 0.255319149,2.29787234 1.78723404,1.19148936 C2.80851064,0.453900709 3.43262411,0.0567375887 3.65957447,0 C3.26241135,0.510638298 3.06382979,0.936170213 3.06382979,1.27659574 C3.06382979,1.78723404 3.23404255,3.40425532 2.80851064,4.25531915 C2.38297872,5.10638298 2.12765957,5.36170213 1.78723404,5.44680851 C1.56028369,5.5035461 1.33333333,5.5035461 1.10638298,5.44680851 Z" id="Path-5" fill="#B3C14E"></path>
                                <path d="M1.36170213,4.76595745 C1.36170213,3.91489362 1.41843972,3.31914894 1.53191489,2.9787234 C1.64539007,2.63829787 1.84397163,2.21276596 2.12765957,1.70212766 C1.90070922,2.38297872 1.75886525,2.83687943 1.70212766,3.06382979 C1.61702128,3.40425532 1.63980659,3.31311405 1.61702128,3.40425532 C1.56028369,3.63120567 1.4751773,4.08510638 1.36170213,4.76595745 Z" id="Path-6" fill="#FFFFFF"></path>
                            </g>
                            <g id="folha" transform="translate(0.510638, 13.106383)">
                                <path d="M5.61702128,2.29787234 C5.27659574,1.5035461 4.59574468,0.879432624 3.57446809,0.425531915 C2.55319149,-0.0283687943 1.36170213,-0.0567375887 0,0.340425532 C0.964539007,1.30496454 1.73049645,1.95744681 2.29787234,2.29787234 C3.14893617,2.80851064 4.08510638,3.31914894 4.76595745,2.9787234 C5.21985816,2.75177305 5.5035461,2.5248227 5.61702128,2.29787234 Z" id="Path-7" fill="#B3C14E"></path>
                                <path d="M4.34042553,1.87234043 C3.94326241,1.58865248 3.63120567,1.39007092 3.40425532,1.27659574 C3.17730496,1.16312057 2.89361702,1.07801418 2.55319149,1.0212766 C2.89361702,1.19148936 3.20567376,1.36170213 3.4893617,1.53191489 C3.77304965,1.70212766 4.05673759,1.81560284 4.34042553,1.87234043 Z" id="Path-8" fill="#FFFFFF"></path>
                            </g>
                            <g id="folha" transform="translate(3.744681, 6.808511)" fill-opacity="0.9">
                                <path d="M0.085106383,4.5106383 C-0.085106383,3.20567376 0.226950355,2.24113475 1.0212766,1.61702128 C1.81560284,0.992907801 3.06382979,0.453900709 4.76595745,0 C3.80141844,1.19148936 3.17730496,2.07092199 2.89361702,2.63829787 C2.46808511,3.4893617 2.12765957,4.5106383 1.36170213,4.68085106 C0.85106383,4.79432624 0.453900709,4.82269504 0.170212766,4.76595745 L0.085106383,4.5106383 Z" id="Path-9" fill="#B3C14E"></path>
                                <path d="M0.765957447,3.82978723 C1.04964539,3.09219858 1.33333333,2.60992908 1.61702128,2.38297872 C1.90070922,2.15602837 2.24113475,1.90070922 2.63829787,1.61702128 C2.07092199,2.18439716 1.70212766,2.58156028 1.53191489,2.80851064 C1.36170213,3.03546099 1.10638298,3.37588652 0.765957447,3.82978723 Z" id="Path" fill="#FFFFFF"></path>
                            </g>
                            <g id="folha" transform="translate(0.000000, 2.468085)">
                                <path d="M0,0 C1.4751773,0.510638298 2.4964539,1.10638298 3.06382979,1.78723404 C3.91489362,2.80851064 4.85106383,4.08510638 3.40425532,4.85106383 C2.43971631,5.36170213 1.67375887,4.9929078 1.10638298,3.74468085 C0.936170213,2.78014184 0.822695035,2.07092199 0.765957447,1.61702128 C0.709219858,1.16312057 0.453900709,0.624113475 0,0 Z" id="Path-10" fill="#B3C14E"></path>
                                <path d="M1.70212766,1.44680851 C2.09929078,2.29787234 2.35460993,2.89361702 2.46808511,3.23404255 C2.58156028,3.57446809 2.72340426,3.94326241 2.89361702,4.34042553 C2.78014184,3.54609929 2.63829787,2.9787234 2.46808511,2.63829787 C2.29787234,2.29787234 2.04255319,1.90070922 1.70212766,1.44680851 Z" id="Path-11" fill="#FFFFFF"></path>
                            </g>
                            <g id="folha" transform="translate(3.659574, 0.000000)">
                                <path d="M5.78723404,0 C4.76595745,0.510638298 4.02836879,0.879432624 3.57446809,1.10638298 C2.89361702,1.44680851 1.53191489,3.31914894 0.680851064,3.06382979 C0.113475177,2.89361702 -0.0567375887,2.4964539 0.170212766,1.87234043 C0.964539007,0.794326241 1.92907801,0.226950355 3.06382979,0.170212766 C4.19858156,0.113475177 5.10638298,0.0567375887 5.78723404,0 Z" id="Path-12" fill="#AEBC4B"></path>
                                <path d="M2.63829787,1.10638298 C1.95744681,1.39007092 1.53191489,1.64539007 1.36170213,1.87234043 C1.19148936,2.09929078 1.07801418,2.26950355 1.0212766,2.38297872 C1.41843972,2.04255319 1.73049645,1.78723404 1.95744681,1.61702128 C2.18439716,1.44680851 2.41134752,1.27659574 2.63829787,1.10638298 Z" id="Path-13" fill="#FFFFFF"></path>
                            </g>
                        </g>
                    </g>
                </g>
            </g>
        </g>
    </g>
</svg>