<?xml version="1.0" encoding="UTF-8" standalone="no"?>
<svg width="98px" height="102px" viewBox="0 0 98 102" version="1.1" xmlns="http://www.w3.org/2000/svg" xmlns:xlink="http://www.w3.org/1999/xlink">
    <!-- Generator: Sketch 44.1 (41455) - http://www.bohemiancoding.com/sketch -->
    <title>Group</title>
    <desc>Created with Sketch.</desc>
    <defs></defs>
    <g id="Evento" stroke="none" stroke-width="1" fill="none" fill-rule="evenodd">
        <g id="Eventos-Pagina" transform="translate(-475.000000, -768.000000)">
            <g id="localizacao" transform="translate(157.000000, 663.000000)">
                <g id="Group" transform="translate(319.000000, 106.000000)">
                    <ellipse id="Oval" stroke="#B3C14E" fill-opacity="0.2" fill="#B3C14E" cx="48.0769231" cy="50" rx="48.0769231" ry="50"></ellipse>
                    <path d="M42.5717058,44.3583405 C41.5865283,43.5193246 41,42.2914833 41,40.5490106 C41,36.3798072 44.3578644,33 48.5,33 C52.6421356,33 56,36.3798072 56,40.5490106 C56,42.3561672 55.3691173,43.609775 54.3169408,44.4501771 C52.8998791,46.8318501 51.9945742,48.4997205 51.6010261,49.4537882 C49.9437259,53.471535 50.1358773,55 48.4785771,55 C46.9393169,55 46.8953882,52.9195942 45.356128,49.4537882 C44.899503,48.4256491 43.9713623,46.7271665 42.5717058,44.3583405 Z M48.4785701,43.8274407 C50.2419357,43.8274407 51.671426,42.3886091 51.671426,40.6137203 C51.671426,38.8388316 50.2419357,37.4 48.4785701,37.4 C46.7152045,37.4 45.2857143,38.8388316 45.2857143,40.6137203 C45.2857143,42.3886091 46.7152045,43.8274407 48.4785701,43.8274407 Z" id="Combined-Shape" fill="#C5D45A"></path>
                </g>
            </g>
        </g>
    </g>
</svg>